#N canvas 330 427 945 427 10;
#X obj 62 11 udpreceive 8766;
#X obj 62 33 unpackOSC;
#X obj 63 79 unpack 0 0 0;
#X floatatom 63 103 12 0 0 0 - - -, f 12;
#X floatatom 103 123 12 0 0 0 - - -, f 12;
#X floatatom 144 143 12 0 0 0 - - -, f 12;
#X obj 183 79 unpack 0 0 0;
#X floatatom 183 103 12 0 0 0 - - -, f 12;
#X floatatom 223 123 12 0 0 0 - - -, f 12;
#X floatatom 264 143 12 0 0 0 - - -, f 12;
#X obj 304 79 unpack 0 0 0;
#X floatatom 304 103 12 0 0 0 - - -, f 12;
#X floatatom 344 123 12 0 0 0 - - -, f 12;
#X floatatom 385 143 12 0 0 0 - - -, f 12;
#X obj 425 79 unpack 0 0 0;
#X floatatom 425 103 12 0 0 0 - - -, f 12;
#X floatatom 465 123 12 0 0 0 - - -, f 12;
#X floatatom 506 143 12 0 0 0 - - -, f 12;
#X obj 788 79 print OSCin;
#X obj 75 301 udpsend;
#X obj 75 268 packOSC;
#X msg 75 245 /stream \$1;
#X obj 75 223 tgl 15 0 empty empty empty 17 7 0 10 -262144 -1 -1 1
1;
#X msg 139 284 connect 192.168.4.1 8765;
#X obj 75 334 tgl 15 0 empty empty connected 17 7 0 10 -4034 -1 -1
1 1;
#X msg 324 284 disconnect;
#X msg 201 251 /red \$1;
#X msg 271 251 /green \$1;
#X msg 352 251 /blue \$1;
#X text 363 375 Martin Peach 2016/11/30;
#X text 249 15 communicate with mp_esp8266MPU9250;
#X obj 201 228 nbx 5 14 -1e+037 1e+037 0 0 empty empty empty 0 -8 0
10 -262144 -1 -1 0 256;
#X obj 271 228 nbx 5 14 -1e+037 1e+037 0 0 empty empty empty 0 -8 0
10 -262144 -1 -1 0 256;
#X obj 352 228 nbx 5 14 -1e+037 1e+037 0 0 empty empty empty 0 -8 0
10 -262144 -1 -1 0 256;
#X text 373 385 Martin Peach 2016/12/05;
#X floatatom 467 207 5 -100 100 0 - - -, f 5;
#X obj 449 228 f;
#X obj 449 207 bng 15 250 50 0 empty empty empty 17 7 0 10 -262144
-1 -1;
#X msg 549 251 /motor/2 \$1;
#X floatatom 567 207 5 -100 100 0 - - -, f 5;
#X obj 549 228 f;
#X obj 549 207 bng 15 250 50 0 empty empty empty 17 7 0 10 -262144
-1 -1;
#X msg 449 251 /motor/1 \$1;
#X text 549 269 tilt position;
#X text 449 269 roll speed;
#X obj 547 88 nbx 9 14 -1e+037 1e+037 0 0 empty empty motor_1_tick
0 -8 0 18 -4034 -1 -1 108095 256;
#X obj 667 121 nbx 9 14 -1e+037 1e+037 0 0 empty empty motor_2_tick
0 -8 0 18 -4034 -1 -1 0 256;
#X obj 63 55 routeOSC /accel/g /gyro/ds /mag/mG /ypr/deg /motor/1/ticks
/motor/2/ticks, f 104;
#X floatatom 217 187 5 0 255 0 - - -, f 5;
#X obj 199 208 f;
#X obj 199 187 bng 15 250 50 0 empty empty empty 17 7 0 10 -262144
-1 -1;
#X floatatom 287 187 5 0 255 0 - - -, f 5;
#X obj 269 208 f;
#X obj 269 187 bng 15 250 50 0 empty empty empty 17 7 0 10 -262144
-1 -1;
#X floatatom 367 187 5 0 255 0 - - -, f 5;
#X obj 349 208 f;
#X obj 349 187 bng 15 250 50 0 empty empty empty 17 7 0 10 -262144
-1 -1;
#X msg 666 251 /reset/2;
#X connect 0 0 1 0;
#X connect 1 0 47 0;
#X connect 2 0 3 0;
#X connect 2 1 4 0;
#X connect 2 2 5 0;
#X connect 6 0 7 0;
#X connect 6 1 8 0;
#X connect 6 2 9 0;
#X connect 10 0 11 0;
#X connect 10 1 12 0;
#X connect 10 2 13 0;
#X connect 14 0 15 0;
#X connect 14 1 16 0;
#X connect 14 2 17 0;
#X connect 19 0 24 0;
#X connect 20 0 19 0;
#X connect 21 0 20 0;
#X connect 22 0 21 0;
#X connect 23 0 19 0;
#X connect 25 0 19 0;
#X connect 26 0 20 0;
#X connect 27 0 20 0;
#X connect 28 0 20 0;
#X connect 31 0 26 0;
#X connect 32 0 27 0;
#X connect 33 0 28 0;
#X connect 35 0 36 1;
#X connect 36 0 42 0;
#X connect 37 0 36 0;
#X connect 38 0 20 0;
#X connect 39 0 40 1;
#X connect 40 0 38 0;
#X connect 41 0 40 0;
#X connect 42 0 20 0;
#X connect 47 0 2 0;
#X connect 47 1 6 0;
#X connect 47 2 10 0;
#X connect 47 3 14 0;
#X connect 47 4 45 0;
#X connect 47 5 46 0;
#X connect 47 6 18 0;
#X connect 48 0 49 1;
#X connect 49 0 31 0;
#X connect 50 0 49 0;
#X connect 51 0 52 1;
#X connect 52 0 32 0;
#X connect 53 0 52 0;
#X connect 54 0 55 1;
#X connect 55 0 33 0;
#X connect 56 0 55 0;
#X connect 57 0 20 0;
